<svg width="40" height="40" viewBox="0 0 40 40" fill="none" xmlns="http://www.w3.org/2000/svg">
<path d="M20 40C31.0457 40 40 31.0457 40 20C40 8.9543 31.0457 0 20 0C8.9543 0 0 8.9543 0 20C0 31.0457 8.9543 40 20 40Z" fill="#25D366"/>
<path fill-rule="evenodd" clip-rule="evenodd" d="M20.6592 31.1271H20.6543C18.6639 31.1265 16.7082 30.6271 14.9711 29.6796L8.66666 31.3334L10.3538 25.1707C9.31311 23.3671 8.76548 21.3213 8.76637 19.2252C8.76898 12.6681 14.104 7.33337 20.6591 7.33337C23.8405 7.33475 26.8265 8.57326 29.0718 10.8212C31.3172 13.0691 32.553 16.057 32.5518 19.2346C32.5492 25.7903 27.2162 31.1245 20.6592 31.1271ZM15.2632 27.5266L15.6242 27.7408C17.1418 28.6414 18.8815 29.118 20.6552 29.1187H20.6592C26.1074 29.1187 30.5416 24.6843 30.5438 19.2339C30.5448 16.5927 29.5176 14.1093 27.6514 12.2409C25.7852 10.3724 23.3033 9.34299 20.6631 9.34207C15.2108 9.34207 10.7765 13.776 10.7743 19.2259C10.7735 21.0937 11.2961 22.9126 12.2856 24.4864L12.5206 24.8604L11.5221 28.508L15.2632 27.5266ZM26.2437 21.7951C26.4509 21.8953 26.5909 21.9629 26.6506 22.0626C26.7249 22.1865 26.7249 22.7815 26.4774 23.4757C26.2297 24.1698 25.0425 24.8034 24.4716 24.8886C23.9596 24.9652 23.3118 24.9971 22.6 24.7709C22.1684 24.634 21.6149 24.4511 20.9059 24.1449C18.1201 22.942 16.2375 20.242 15.8817 19.7317C15.8568 19.696 15.8394 19.671 15.8296 19.658L15.8272 19.6548C15.67 19.445 14.6163 18.0391 14.6163 16.584C14.6163 15.2152 15.2886 14.4978 15.5981 14.1676C15.6193 14.1449 15.6388 14.1241 15.6563 14.105C15.9287 13.8075 16.2506 13.7332 16.4487 13.7332C16.6468 13.7332 16.8451 13.735 17.0182 13.7437C17.0396 13.7448 17.0618 13.7446 17.0848 13.7445C17.258 13.7435 17.4738 13.7422 17.6868 14.2538C17.7688 14.4507 17.8886 14.7426 18.0151 15.0504C18.2708 15.6729 18.5533 16.3607 18.603 16.4602C18.6773 16.609 18.7268 16.7824 18.6278 16.9808C18.6129 17.0106 18.5991 17.0387 18.586 17.0655C18.5116 17.2174 18.4569 17.3291 18.3306 17.4765C18.281 17.5345 18.2297 17.597 18.1783 17.6595C18.0761 17.784 17.9739 17.9085 17.8849 17.9971C17.7361 18.1453 17.5813 18.3061 17.7546 18.6036C17.9279 18.9011 18.5243 19.8741 19.4077 20.6621C20.3573 21.5091 21.1826 21.8671 21.601 22.0486C21.6827 22.084 21.7488 22.1127 21.7974 22.137C22.0944 22.2858 22.2678 22.2609 22.4411 22.0626C22.6145 21.8643 23.184 21.1949 23.382 20.8975C23.5801 20.6001 23.7783 20.6496 24.0506 20.7488C24.3231 20.848 25.784 21.5668 26.0812 21.7155C26.1392 21.7446 26.1934 21.7708 26.2437 21.7951Z" fill="white"/>
</svg>
